<svg xmlns="http://www.w3.org/2000/svg" width="1200" height="630" viewBox="0 0 1200 630">
  <defs>
    <linearGradient id="bg" x1="0%" y1="0%" x2="100%" y2="100%">
      <stop offset="0%" stop-color="#04070B"/>
      <stop offset="50%" stop-color="#111D2C"/>
      <stop offset="100%" stop-color="#162437"/>
    </linearGradient>
    <linearGradient id="accent" x1="0%" y1="0%" x2="100%" y2="0%">
      <stop offset="0%" stop-color="#38BDF8"/>
      <stop offset="50%" stop-color="#F7B733"/>
      <stop offset="100%" stop-color="#38BDF8"/>
    </linearGradient>
  </defs>
  <rect width="1200" height="630" fill="url(#bg)"/>
  <g fill="none" stroke="rgba(255,255,255,0.08)">
    <path d="M0 90h1200M0 180h1200M0 270h1200M0 360h1200M0 450h1200M0 540h1200" />
    <path d="M120 0v630M240 0v630M360 0v630M480 0v630M600 0v630M720 0v630M840 0v630M960 0v630M1080 0v630"/>
  </g>
  <g transform="translate(120 150)">
    <text x="0" y="0" fill="rgba(255,255,255,0.65)" font-family="'Manrope', 'Inter', sans-serif" font-size="32" letter-spacing="6">
      AGENCIA DIGITAL
    </text>
    <text x="0" y="120" fill="white" font-family="'Inter', sans-serif" font-size="86" font-weight="700" letter-spacing="-1">
      ArrobaPunto.com
    </text>
    <rect x="0" y="160" width="420" height="8" rx="4" fill="url(#accent)"/>
    <text x="0" y="240" fill="rgba(255,255,255,0.65)" font-family="'Manrope', 'Inter', sans-serif" font-size="36" letter-spacing="1">
      Diseño boutique + rendimiento extremo
    </text>
  </g>
</svg>

