<svg width="1280" height="720" viewBox="0 0 1280 720" fill="none" xmlns="http://www.w3.org/2000/svg">
  <defs>
    <linearGradient id="gradient" x1="0" y1="0" x2="1280" y2="720" gradientUnits="userSpaceOnUse">
      <stop offset="0%" stop-color="#1A102B" />
      <stop offset="50%" stop-color="#3B1E5D" />
      <stop offset="100%" stop-color="#F2C17D" />
    </linearGradient>
    <radialGradient id="glow" cx="0" cy="0" r="1" gradientUnits="userSpaceOnUse" gradientTransform="translate(320 200) scale(420)">
      <stop stop-color="#F3D9A3" stop-opacity="0.9" />
      <stop offset="1" stop-color="#1A102B" stop-opacity="0" />
    </radialGradient>
  </defs>
  <rect width="1280" height="720" rx="48" fill="url(#gradient)" />
  <rect width="1280" height="720" rx="48" fill="url(#glow)" />
  <g opacity="0.25">
    <circle cx="980" cy="220" r="140" stroke="#F3D9A3" stroke-width="6" />
    <circle cx="980" cy="220" r="92" stroke="#F3D9A3" stroke-width="4" stroke-dasharray="16 14" />
    <path d="M840 500C840 430 900 380 960 380H1000C1060 380 1120 430 1120 500" stroke="#F3D9A3" stroke-width="6" stroke-linecap="round" />
  </g>
  <rect x="260" y="180" width="240" height="240" rx="36" fill="#24133B" stroke="#F4E7C5" stroke-width="4" />
  <path d="M300 260H460" stroke="#F3D9A3" stroke-width="6" stroke-linecap="round" />
  <path d="M300 300H420" stroke="#F3D9A3" stroke-width="6" stroke-linecap="round" />
  <path d="M300 340H380" stroke="#F3D9A3" stroke-width="6" stroke-linecap="round" />
  <circle cx="468" cy="196" r="18" fill="#F3D9A3" />
  <circle cx="508" cy="196" r="12" fill="#F3D9A3" opacity="0.6" />
  <rect x="560" y="320" width="420" height="48" rx="24" fill="#1F1433" stroke="#F3D9A3" stroke-width="3" />
  <circle cx="600" cy="344" r="12" fill="#F3D9A3" />
  <circle cx="640" cy="344" r="12" fill="#E8DCC7" />
  <circle cx="680" cy="344" r="12" fill="#D4B68C" />
  <text x="640" y="140" font-family="'Inter', 'Arial', sans-serif" font-weight="700" font-size="62" fill="#F8F5FF" text-anchor="middle">Diseño + IA</text>
  <text x="640" y="196" font-family="'Inter', 'Arial', sans-serif" font-weight="400" font-size="24" fill="#F0E5FF" text-anchor="middle">Flujos creativos guiados por algoritmos inteligentes</text>
</svg>



