<svg width="1280" height="720" viewBox="0 0 1280 720" fill="none" xmlns="http://www.w3.org/2000/svg">
  <defs>
    <linearGradient id="gradient" x1="0" y1="0" x2="1280" y2="720" gradientUnits="userSpaceOnUse">
      <stop offset="0%" stop-color="#101C29" />
      <stop offset="50%" stop-color="#1F3D53" />
      <stop offset="100%" stop-color="#F0C977" />
    </linearGradient>
    <radialGradient id="glow" cx="0" cy="0" r="1" gradientUnits="userSpaceOnUse" gradientTransform="translate(880 180) scale(420)">
      <stop stop-color="#FFE6A1" stop-opacity="0.7" />
      <stop offset="1" stop-color="#101C29" stop-opacity="0" />
    </radialGradient>
  </defs>
  <rect width="1280" height="720" rx="48" fill="url(#gradient)" />
  <rect width="1280" height="720" rx="48" fill="url(#glow)" />
  <g opacity="0.2" stroke="#FFE6A1" stroke-width="4" stroke-linecap="round">
    <path d="M260 200H1020" stroke-dasharray="20 16" />
    <path d="M300 360H1060" stroke-dasharray="16 14" />
    <path d="M340 520H900" stroke-dasharray="12 12" />
  </g>
  <rect x="240" y="200" width="320" height="220" rx="28" fill="#122536" stroke="#FFE6A1" stroke-width="4" />
  <circle cx="320" cy="260" r="28" fill="#FFE6A1" />
  <rect x="360" y="240" width="160" height="16" rx="8" fill="#FFE6A1" opacity="0.8" />
  <rect x="360" y="270" width="120" height="14" rx="7" fill="#FFE6A1" opacity="0.6" />
  <rect x="300" y="320" width="200" height="18" rx="9" fill="#183346" />
  <rect x="300" y="350" width="200" height="18" rx="9" fill="#183346" />
  <rect x="300" y="380" width="150" height="18" rx="9" fill="#183346" />

  <rect x="620" y="260" width="360" height="180" rx="28" fill="#131F2D" stroke="#FFE6A1" stroke-width="4" />
  <path d="M660 320H940" stroke="#FFE6A1" stroke-width="6" stroke-linecap="round" />
  <path d="M660 360H900" stroke="#FFE6A1" stroke-width="6" stroke-linecap="round" />
  <path d="M660 400H840" stroke="#FFE6A1" stroke-width="6" stroke-linecap="round" />
  <circle cx="740" cy="440" r="42" fill="#183346" stroke="#FFE6A1" stroke-width="4" />
  <path d="M740 414L754 436L726 436L740 458" stroke="#FFE6A1" stroke-width="4" stroke-linecap="round" stroke-linejoin="round" />

  <rect x="500" y="460" width="280" height="140" rx="28" fill="#0F1A26" stroke="#FFE6A1" stroke-width="3" />
  <path d="M540 520H740" stroke="#FFE6A1" stroke-width="5" stroke-linecap="round" />
  <path d="M540 560H700" stroke="#FFE6A1" stroke-width="5" stroke-linecap="round" />

  <text x="640" y="140" font-family="'Inter', 'Arial', sans-serif" font-weight="700" font-size="58" fill="#F8FBFF" text-anchor="middle">IA para Project Managers</text>
  <text x="640" y="188" font-family="'Inter', 'Arial', sans-serif" font-weight="400" font-size="24" fill="#E5F2FF" text-anchor="middle">Planifica, prioriza y comunica en piloto automático</text>
</svg>



