<svg width="600" height="400" viewBox="0 0 600 400" fill="none" xmlns="http://www.w3.org/2000/svg">
  <defs>
    <linearGradient id="formatterGradient" x1="0%" y1="0%" x2="100%" y2="100%">
      <stop offset="0%" style="stop-color:#6366F1;stop-opacity:1" />
      <stop offset="100%" style="stop-color:#8B5CF6;stop-opacity:1" />
    </linearGradient>
  </defs>
  
  <!-- Background gradient -->
  <rect width="600" height="400" fill="url(#formatterGradient)" opacity="0.1"/>
  
  <!-- Code blocks representation (left side - unformatted) -->
  <g opacity="0.3">
    <!-- Compact/unformatted code -->
    <rect x="80" y="100" width="180" height="200" rx="6" fill="white" opacity="0.1"/>
    <rect x="90" y="110" width="160" height="8" rx="2" fill="white"/>
    <rect x="90" y="130" width="140" height="8" rx="2" fill="white"/>
    <rect x="90" y="150" width="150" height="8" rx="2" fill="white"/>
    <rect x="110" y="170" width="130" height="8" rx="2" fill="white"/>
    <rect x="90" y="190" width="145" height="8" rx="2" fill="white"/>
    <rect x="90" y="210" width="135" height="8" rx="2" fill="white"/>
    <rect x="110" y="230" width="120" height="8" rx="2" fill="white"/>
    <rect x="90" y="250" width="155" height="8" rx="2" fill="white"/>
  </g>
  
  <!-- Code blocks representation (right side - formatted) -->
  <g opacity="0.4">
    <!-- Well-formatted code -->
    <rect x="340" y="100" width="180" height="200" rx="6" fill="white" opacity="0.15"/>
    <rect x="350" y="110" width="120" height="8" rx="2" fill="white"/>
    <rect x="360" y="130" width="110" height="8" rx="2" fill="white"/>
    <rect x="370" y="150" width="100" height="8" rx="2" fill="white"/>
    <rect x="380" y="170" width="90" height="8" rx="2" fill="white"/>
    <rect x="360" y="190" width="105" height="8" rx="2" fill="white"/>
    <rect x="350" y="210" width="115" height="8" rx="2" fill="white"/>
    <rect x="370" y="230" width="95" height="8" rx="2" fill="white"/>
    <rect x="360" y="250" width="110" height="8" rx="2" fill="white"/>
  </g>
  
  <!-- Transformation arrow -->
  <path d="M 270 200 L 330 200" stroke="white" stroke-width="3" stroke-opacity="0.4" marker-end="url(#arrowheadFormatter)"/>
  <circle cx="300" cy="200" r="15" fill="white" opacity="0.2"/>
  
  <!-- Arrow marker -->
  <defs>
    <marker id="arrowheadFormatter" markerWidth="10" markerHeight="10" refX="9" refY="3" orient="auto">
      <polygon points="0 0, 10 3, 0 6" fill="white" opacity="0.4"/>
    </marker>
  </defs>
  
  <!-- Curly braces representing code structure -->
  <path d="M 220 120 Q 215 140 220 160" stroke="white" stroke-width="2" stroke-opacity="0.3" fill="none"/>
  <path d="M 220 160 Q 215 180 220 200" stroke="white" stroke-width="2" stroke-opacity="0.3" fill="none"/>
  <path d="M 220 200 Q 215 220 220 240" stroke="white" stroke-width="2" stroke-opacity="0.3" fill="none"/>
  
  <path d="M 380 120 Q 385 140 380 160" stroke="white" stroke-width="2" stroke-opacity="0.3" fill="none"/>
  <path d="M 380 160 Q 385 180 380 200" stroke="white" stroke-width="2" stroke-opacity="0.3" fill="none"/>
  <path d="M 380 200 Q 385 220 380 240" stroke="white" stroke-width="2" stroke-opacity="0.3" fill="none"/>
  
  <!-- Brackets -->
  <line x1="255" y1="120" x2="255" y2="240" stroke="white" stroke-width="2" stroke-opacity="0.2"/>
  <line x1="345" y1="120" x2="345" y2="240" stroke="white" stroke-width="2" stroke-opacity="0.2"/>
</svg>

