<svg width="600" height="400" viewBox="0 0 600 400" fill="none" xmlns="http://www.w3.org/2000/svg">
  <defs>
    <linearGradient id="gradientBg1" x1="0%" y1="0%" x2="100%" y2="100%">
      <stop offset="0%" style="stop-color:#8B5CF6;stop-opacity:0.2" />
      <stop offset="50%" style="stop-color:#EC4899;stop-opacity:0.2" />
      <stop offset="100%" style="stop-color:#3B82F6;stop-opacity:0.2" />
    </linearGradient>
    <linearGradient id="gradientSample1" x1="0%" y1="0%" x2="100%" y2="0%">
      <stop offset="0%" style="stop-color:#8B5CF6;stop-opacity:1" />
      <stop offset="100%" style="stop-color:#EC4899;stop-opacity:1" />
    </linearGradient>
    <linearGradient id="gradientSample2" x1="0%" y1="0%" x2="0%" y2="100%">
      <stop offset="0%" style="stop-color:#EC4899;stop-opacity:1" />
      <stop offset="100%" style="stop-color:#3B82F6;stop-opacity:1" />
    </linearGradient>
    <radialGradient id="gradientSample3" cx="50%" cy="50%">
      <stop offset="0%" style="stop-color:#8B5CF6;stop-opacity:1" />
      <stop offset="100%" style="stop-color:#EC4899;stop-opacity:0.5" />
    </radialGradient>
  </defs>
  
  <!-- Background gradient -->
  <rect width="600" height="400" fill="url(#gradientBg1)"/>
  
  <!-- Horizontal gradient sample -->
  <rect x="80" y="100" width="140" height="80" rx="8" fill="url(#gradientSample1)" opacity="0.6"/>
  
  <!-- Vertical gradient sample -->
  <rect x="250" y="100" width="140" height="80" rx="8" fill="url(#gradientSample2)" opacity="0.6"/>
  
  <!-- Radial gradient sample -->
  <circle cx="470" cy="140" r="50" fill="url(#gradientSample3)" opacity="0.6"/>
  
  <!-- Glassmorphism effect (bottom) -->
  <rect x="150" y="220" width="300" height="120" rx="12" fill="white" opacity="0.1"/>
  <rect x="160" y="230" width="280" height="100" rx="10" fill="url(#gradientSample1)" opacity="0.15"/>
  
  <!-- Gradient stops/color pickers representation -->
  <circle cx="120" cy="110" r="8" fill="#8B5CF6" opacity="0.8"/>
  <circle cx="200" cy="110" r="8" fill="#EC4899" opacity="0.8"/>
  <circle cx="290" cy="110" r="8" fill="#EC4899" opacity="0.8"/>
  <circle cx="380" cy="110" r="8" fill="#3B82F6" opacity="0.8"/>
  <circle cx="470" cy="110" r="8" fill="#8B5CF6" opacity="0.8"/>
  
  <!-- Connection lines between color stops -->
  <line x1="120" y1="110" x2="200" y2="110" stroke="white" stroke-width="2" stroke-opacity="0.3"/>
  <line x1="290" y1="110" x2="380" y2="110" stroke="white" stroke-width="2" stroke-opacity="0.3"/>
  <line x1="450" y1="110" x2="470" y2="110" stroke="white" stroke-width="2" stroke-opacity="0.3"/>
  
  <!-- Wave patterns representing smooth transitions -->
  <path d="M 120 200 Q 150 185 180 200 T 240 200" stroke="white" stroke-width="2" stroke-opacity="0.2" fill="none"/>
  <path d="M 260 200 Q 290 215 320 200 T 380 200" stroke="white" stroke-width="2" stroke-opacity="0.2" fill="none"/>
</svg>

