<svg width="600" height="400" viewBox="0 0 600 400" fill="none" xmlns="http://www.w3.org/2000/svg">
  <defs>
    <linearGradient id="imageGradient" x1="0%" y1="0%" x2="100%" y2="100%">
      <stop offset="0%" style="stop-color:#8B5CF6;stop-opacity:1" />
      <stop offset="100%" style="stop-color:#EC4899;stop-opacity:1" />
    </linearGradient>
    <filter id="glow">
      <feGaussianBlur stdDeviation="3" result="coloredBlur"/>
      <feMerge>
        <feMergeNode in="coloredBlur"/>
        <feMergeNode in="SourceGraphic"/>
      </feMerge>
    </filter>
  </defs>
  
  <!-- Background gradient -->
  <rect width="600" height="400" fill="url(#imageGradient)" opacity="0.1"/>
  
  <!-- Large frame/image representation (top left) -->
  <rect x="80" y="80" width="140" height="100" rx="8" fill="white" opacity="0.15"/>
  <rect x="85" y="85" width="130" height="90" rx="6" fill="url(#imageGradient)" opacity="0.2"/>
  <circle cx="115" cy="115" r="15" fill="white" opacity="0.4"/>
  <circle cx="165" cy="115" r="12" fill="white" opacity="0.3"/>
  <circle cx="135" cy="145" r="10" fill="white" opacity="0.25"/>
  
  <!-- Compressed/smaller version (bottom right) -->
  <rect x="380" y="220" width="100" height="70" rx="6" fill="white" opacity="0.2"/>
  <rect x="385" y="225" width="90" height="60" rx="4" fill="url(#imageGradient)" opacity="0.3"/>
  <circle cx="410" cy="250" r="8" fill="white" opacity="0.5"/>
  <circle cx="450" cy="250" r="6" fill="white" opacity="0.4"/>
  
  <!-- Compression arrow/indicator -->
  <path d="M 250 150 L 370 250" stroke="white" stroke-width="3" stroke-opacity="0.4" marker-end="url(#arrowhead)"/>
  <circle cx="310" cy="200" r="20" fill="white" opacity="0.3"/>
  
  <!-- Arrow marker -->
  <defs>
    <marker id="arrowhead" markerWidth="10" markerHeight="10" refX="9" refY="3" orient="auto">
      <polygon points="0 0, 10 3, 0 6" fill="white" opacity="0.4"/>
    </marker>
  </defs>
  
  <!-- Grid pattern representing pixels -->
  <g opacity="0.2">
    <line x1="100" y1="80" x2="100" y2="180" stroke="white" stroke-width="1"/>
    <line x1="140" y1="80" x2="140" y2="180" stroke="white" stroke-width="1"/>
    <line x1="180" y1="80" x2="180" y2="180" stroke="white" stroke-width="1"/>
    <line x1="80" y1="110" x2="220" y2="110" stroke="white" stroke-width="1"/>
    <line x1="80" y1="150" x2="220" y2="150" stroke="white" stroke-width="1"/>
  </g>
  
  <!-- Size indicators -->
  <rect x="90" y="200" width="60" height="20" rx="4" fill="white" opacity="0.15"/>
  <rect x="400" y="300" width="40" height="15" rx="3" fill="white" opacity="0.2"/>
</svg>

