<svg width="600" height="400" viewBox="0 0 600 400" fill="none" xmlns="http://www.w3.org/2000/svg">
  <defs>
    <linearGradient id="qrGradient" x1="0%" y1="0%" x2="100%" y2="100%">
      <stop offset="0%" style="stop-color:#10B981;stop-opacity:1" />
      <stop offset="100%" style="stop-color:#14B8A6;stop-opacity:1" />
    </linearGradient>
  </defs>
  
  <!-- Background gradient -->
  <rect width="600" height="400" fill="url(#qrGradient)" opacity="0.1"/>
  
  <!-- Main QR code representation (centered) -->
  <g transform="translate(200, 120)">
    <!-- QR pattern - position finder squares -->
    <rect x="0" y="0" width="80" height="80" fill="white" opacity="0.2"/>
    <rect x="10" y="10" width="60" height="60" fill="none" stroke="white" stroke-width="4" stroke-opacity="0.4"/>
    <rect x="25" y="25" width="30" height="30" fill="white" opacity="0.3"/>
    
    <!-- QR pattern - top right -->
    <rect x="160" y="0" width="80" height="80" fill="white" opacity="0.2"/>
    <rect x="170" y="10" width="60" height="60" fill="none" stroke="white" stroke-width="4" stroke-opacity="0.4"/>
    <rect x="185" y="25" width="30" height="30" fill="white" opacity="0.3"/>
    
    <!-- QR pattern - bottom left -->
    <rect x="0" y="160" width="80" height="80" fill="white" opacity="0.2"/>
    <rect x="10" y="170" width="60" height="60" fill="none" stroke="white" stroke-width="4" stroke-opacity="0.4"/>
    <rect x="25" y="185" width="30" height="30" fill="white" opacity="0.3"/>
    
    <!-- QR data pattern blocks -->
    <rect x="90" y="10" width="20" height="20" fill="white" opacity="0.25"/>
    <rect x="120" y="10" width="30" height="20" fill="white" opacity="0.25"/>
    <rect x="10" y="50" width="20" height="15" fill="white" opacity="0.25"/>
    <rect x="40" y="50" width="25" height="15" fill="white" opacity="0.25"/>
    <rect x="70" y="50" width="20" height="15" fill="white" opacity="0.25"/>
    <rect x="90" y="40" width="15" height="30" fill="white" opacity="0.25"/>
    <rect x="120" y="40" width="20" height="30" fill="white" opacity="0.25"/>
    <rect x="140" y="55" width="15" height="15" fill="white" opacity="0.25"/>
    
    <!-- Bottom section pattern -->
    <rect x="90" y="100" width="25" height="25" fill="white" opacity="0.25"/>
    <rect x="125" y="100" width="20" height="25" fill="white" opacity="0.25"/>
    <rect x="150" y="110" width="15" height="15" fill="white" opacity="0.25"/>
    <rect x="170" y="100" width="20" height="20" fill="white" opacity="0.25"/>
    <rect x="90" y="135" width="20" height="20" fill="white" opacity="0.25"/>
    <rect x="120" y="140" width="25" height="15" fill="white" opacity="0.25"/>
    <rect x="150" y="135" width="15" height="20" fill="white" opacity="0.25"/>
    <rect x="175" y="130" width="20" height="25" fill="white" opacity="0.25"/>
    
    <!-- Right section pattern -->
    <rect x="100" y="170" width="25" height="15" fill="white" opacity="0.25"/>
    <rect x="135" y="175" width="20" height="15" fill="white" opacity="0.25"/>
    <rect x="165" y="170" width="15" height="20" fill="white" opacity="0.25"/>
    <rect x="100" y="195" width="20" height="20" fill="white" opacity="0.25"/>
    <rect x="130" y="195" width="25" height="15" fill="white" opacity="0.25"/>
    <rect x="165" y="200" width="20" height="15" fill="white" opacity="0.25"/>
    <rect x="190" y="195" width="15" height="20" fill="white" opacity="0.25"/>
  </g>
  
  <!-- Scanning lines effect -->
  <line x1="250" y1="100" x2="350" y2="100" stroke="white" stroke-width="2" stroke-opacity="0.3" stroke-dasharray="5,5"/>
  <line x1="250" y1="140" x2="350" y2="140" stroke="white" stroke-width="2" stroke-opacity="0.3" stroke-dasharray="5,5"/>
  <line x1="250" y1="220" x2="350" y2="220" stroke="white" stroke-width="2" stroke-opacity="0.3" stroke-dasharray="5,5"/>
</svg>

